<?xml version="1.0" encoding="UTF-8" standalone="no"?>
<svg
   xmlns:dc="http://purl.org/dc/elements/1.1/"
   xmlns:cc="http://creativecommons.org/ns#"
   xmlns:rdf="http://www.w3.org/1999/02/22-rdf-syntax-ns#"
   xmlns:svg="http://www.w3.org/2000/svg"
   xmlns="http://www.w3.org/2000/svg"
   xmlns:sodipodi="http://sodipodi.sourceforge.net/DTD/sodipodi-0.dtd"
   xmlns:inkscape="http://www.inkscape.org/namespaces/inkscape"
   version="1.1"
   width="600.88586"
   height="252.9162"
   viewBox="0 0 600.88587 252.9162"
   xml:space="preserve"
   id="svg82"
   sodipodi:docname="PioneerHyperfine.svg"
   inkscape:version="1.0.2 (e86c870879, 2021-01-15)"><metadata
   id="metadata88"><rdf:RDF><cc:Work
       rdf:about=""><dc:format>image/svg+xml</dc:format><dc:type
         rdf:resource="http://purl.org/dc/dcmitype/StillImage" /><dc:title></dc:title></cc:Work></rdf:RDF></metadata><defs
   id="defs86" /><sodipodi:namedview
   pagecolor="#ffffff"
   bordercolor="#666666"
   borderopacity="1"
   objecttolerance="10"
   gridtolerance="10"
   guidetolerance="10"
   inkscape:pageopacity="0"
   inkscape:pageshadow="2"
   inkscape:window-width="1600"
   inkscape:window-height="835"
   id="namedview84"
   showgrid="false"
   inkscape:zoom="1.00051"
   inkscape:cx="260.63601"
   inkscape:cy="202.16871"
   inkscape:window-x="0"
   inkscape:window-y="0"
   inkscape:window-maximized="1"
   inkscape:current-layer="g28"
   fit-margin-top="0"
   fit-margin-left="0"
   fit-margin-right="0"
   fit-margin-bottom="0" />

<g
   transform="translate(-451.72066,-115.38703)"
   style="display:inline"
   id="g2">
</g>
<g
   transform="translate(-451.72066,-115.38703)"
   style="display:inline"
   id="g28">


<path
   d="M 556.1856,230.45455 V 284.9568"
   style="display:inline;fill:#babdb6;stroke:#eeeeec;stroke-width:8;stroke-linecap:round;stroke-linejoin:round"
   id="path8" />

<path
   d="m 555.128,125.13107 v 54.50226"
   style="display:inline;fill:#babdb6;stroke:#eeeeec;stroke-width:8;stroke-linecap:round;stroke-linejoin:round"
   id="path12" />
<path
   d="m 556.82356,364.30266 c -55.70238,-0.1879 -101.29687,-48.08833 -101.10228,-105.78151 0.19795,-58.68789 46.1112,-105.28494 101.81359,-105.09704 56.69707,0.19125 102.29491,47.09696 102.09696,105.78486 -0.1946,57.69319 -46.11119,105.28493 -102.80827,105.09369 z"
   style="display:inline;fill:none;stroke:#d3d7cf;stroke-width:8;stroke-linecap:round;stroke-linejoin:round"
   id="path14" />


<path
   d="m 946.65066,125.13107 v 54.50226"
   style="display:inline;fill:none;stroke:#eeeeec;stroke-width:8;stroke-linecap:round;stroke-linejoin:round"
   id="path20" />
<path
   d="M 946.72295,230.45455 V 284.9568"
   style="display:inline;fill:none;stroke:#eeeeec;stroke-width:8;stroke-linecap:round;stroke-linejoin:round"
   id="path22" />

<path
   d="m 945.79765,364.30266 c -55.70238,-0.1879 -101.29687,-48.08833 -101.10228,-105.78151 0.19795,-58.68789 46.1112,-105.28494 101.81359,-105.09704 56.69704,0.19125 102.29494,47.09696 102.09694,105.78486 -0.1946,57.69319 -46.1112,105.28493 -102.80825,105.09369 z"
   style="display:inline;fill:none;stroke:#d3d7cf;stroke-width:8;stroke-linecap:round;stroke-linejoin:round"
   id="path26" />
<path
   d="m 555.11099,184.67951 c -3.02768,-0.0101 -5.03934,-2.03549 -5.02913,-5.0632 0.006,-2.01848 2.03549,-5.03938 5.06317,-5.02916 3.0277,0.0101 5.03595,3.04473 5.02914,5.06321 -0.0102,3.0277 -2.03548,5.03937 -5.06318,5.02915 z"
   style="display:inline;fill:none;stroke:#babdb6;stroke-width:8;stroke-linecap:round;stroke-linejoin:round"
   id="path4" /><path
   d="m 947.13828,128.47021 c -3.0277,-0.0101 -5.03936,-2.0355 -5.02915,-5.06321 0.006,-2.01849 2.03209,-4.03014 5.05978,-4.01993 2.01846,0.006 4.03012,2.03207 4.0233,4.05056 -0.0102,3.02772 -2.03547,5.03939 -4.05393,5.03258 z"
   style="display:inline;fill:none;stroke:#babdb6;stroke-width:8;stroke-linecap:round;stroke-linejoin:round"
   id="path6" /><path
   d="m 556.67321,234.4915 c -3.0277,-0.0102 -5.03936,-2.0355 -5.02914,-5.0632 0.006,-2.01848 2.03548,-5.03939 5.06318,-5.02918 2.01846,0.006 4.02671,3.04134 4.01991,5.05982 -0.0102,3.02769 -2.03549,5.03937 -4.05395,5.03256 z"
   style="display:inline;fill:none;stroke:#babdb6;stroke-width:8;stroke-linecap:round;stroke-linejoin:round"
   id="path10" /><path
   d="m 947.21056,234.4915 c -3.0277,-0.0102 -5.03936,-2.0355 -5.02914,-5.0632 0.006,-2.01848 2.03548,-5.03939 5.06318,-5.02918 2.01846,0.006 4.02671,3.04134 4.01991,5.05982 -0.0102,3.02769 -2.03549,5.03937 -4.05395,5.03256 z"
   style="display:inline;fill:none;stroke:#babdb6;stroke-width:8;stroke-linecap:round;stroke-linejoin:round"
   id="path24" /></g>
<g
   transform="translate(-451.72066,-115.38703)"
   style="display:inline"
   id="g30" />

<g
   transform="translate(-451.72066,-115.38703)"
   style="display:inline"
   id="g66">

</g>

</svg>
