<?xml version="1.0" encoding="UTF-8" standalone="no"?>
<svg
   xmlns:dc="http://purl.org/dc/elements/1.1/"
   xmlns:cc="http://creativecommons.org/ns#"
   xmlns:rdf="http://www.w3.org/1999/02/22-rdf-syntax-ns#"
   xmlns:svg="http://www.w3.org/2000/svg"
   xmlns="http://www.w3.org/2000/svg"
   xmlns:sodipodi="http://sodipodi.sourceforge.net/DTD/sodipodi-0.dtd"
   xmlns:inkscape="http://www.inkscape.org/namespaces/inkscape"
   width="70mm"
   height="70mm"
   viewBox="0 0 70 70"
   version="1.1"
   id="svg5"
   xml:space="preserve"
   inkscape:version="1.0.2 (e86c870879, 2021-01-15)"
   sodipodi:docname="qtalogo3.svg"
   inkscape:export-filename="qtalogo2.png"
   inkscape:export-xdpi="108.85715"
   inkscape:export-ydpi="108.85715"><metadata
     id="metadata16"><rdf:RDF><cc:Work
         rdf:about=""><dc:format>image/svg+xml</dc:format><dc:type
           rdf:resource="http://purl.org/dc/dcmitype/StillImage" /><dc:title></dc:title></cc:Work></rdf:RDF></metadata><sodipodi:namedview
     id="namedview7"
     pagecolor="#ffffff"
     bordercolor="#999999"
     borderopacity="1"
     inkscape:showpageshadow="0"
     inkscape:pageopacity="0"
     inkscape:pagecheckerboard="0"
     inkscape:deskcolor="#d1d1d1"
     inkscape:document-units="mm"
     showgrid="false"
     inkscape:zoom="2.3478627"
     inkscape:cx="115.02175"
     inkscape:cy="140.3017"
     inkscape:window-width="1600"
     inkscape:window-height="835"
     inkscape:window-x="0"
     inkscape:window-y="0"
     inkscape:window-maximized="1"
     inkscape:current-layer="layer1"
     inkscape:pageshadow="2"
     inkscape:document-rotation="0" /><defs
     id="defs2" /><g
     inkscape:label="Layer 1"
     inkscape:groupmode="layer"
     id="layer1"><g
       id="g1577"
       transform="translate(1.2571346,3.6933537)"
       style="fill:#8ae234"><ellipse
         style="fill:#8ae234;fill-opacity:1;stroke:none;stroke-width:0.690242;stroke-dasharray:none;stroke-opacity:1"
         id="path4533"
         cx="32.547264"
         cy="31.306646"
         rx="28.637901"
         ry="26.419363" /></g><path
       style="fill:none;stroke:#000000;stroke-width:4.154;stroke-linecap:butt;stroke-linejoin:miter;stroke-dasharray:none;stroke-opacity:1"
       d="M 17.320862,23.707163 V 50.024334"
       id="path405" /><path
       style="fill:none;stroke:#000000;stroke-width:4.054;stroke-linecap:butt;stroke-linejoin:miter;stroke-dasharray:none;stroke-opacity:1"
       d="M 49.842366,49.900715 56.19308,36.634628 49.683413,23.832544"
       id="path407"
       sodipodi:nodetypes="ccc" /><path
       id="bird"
       d="m 31.314362,26.228197 c -4.858816,0.03758 -10.213147,4.007421 -9.598339,9.917547 0.19729,1.898006 0.848802,2.992648 2.394997,3.711447 1.665486,0.775175 2.615225,2.565126 2.31241,5.308777 -0.454223,0.230203 -0.798333,0.516784 -0.87633,0.939607 0.344109,-0.0094 0.68363,-0.0141 1.036914,0.202015 0.931388,0.582557 1.436081,1.287261 1.972889,2.428882 0.07801,0.16913 0.376226,0.131546 0.380814,-0.145639 0.0092,-0.399333 -0.08718,-0.822154 -0.238582,-1.26377 -0.137643,-0.389936 0.142233,-0.375844 0.31658,-0.286581 0.29364,0.14564 0.747863,0.441616 1.394788,0.615443 0.247759,0.06577 0.275286,-0.183223 0.238582,-0.328862 -0.08718,-0.352353 -0.504693,-0.512086 -1.124088,-0.902022 -0.22023,-0.140941 -0.0413,-0.45571 0.238581,-0.394634 l 0.926801,0.112752 c 0.155996,0.03758 0.211052,-0.286581 0.0413,-0.371144 -0.651514,-0.319467 -1.325967,-0.474502 -2.472995,-0.366448 -0.532222,-1.376522 -1.36726,-2.893988 -0.720335,-3.838293 0.578103,-0.840948 1.431491,-0.972493 1.793953,2.043645 -0.229405,0.145638 -0.513868,0.234902 -0.518456,0.610743 0.330345,-0.131544 0.513867,-0.06577 0.67904,0 0.821273,0.328864 1.628782,1.024172 2.431701,1.752367 0.169762,0.155036 0.385403,-0.07988 0.321168,-0.281882 -0.09635,-0.305373 -0.371636,-0.502689 -0.679039,-0.939605 -0.146821,-0.211414 0.229405,-0.328863 0.500103,-0.324166 0.633161,0.0188 1.05068,0.389938 1.615018,0.526181 0.206465,0.05167 0.445049,-0.09396 0.31658,-0.324165 -0.160583,-0.28658 -0.596455,-0.427522 -0.880918,-0.629537 -0.201877,-0.14094 -0.137644,-0.33356 0.123879,-0.31007 0.178937,0.0188 0.38999,0.108054 0.637748,0.08457 0.454224,-0.04228 0.353285,-0.338258 -0.0413,-0.451011 -0.871743,-0.248995 -1.830659,-0.295976 -2.830869,-0.244297 -2.009593,-0.394635 -1.449844,-3.98863 0,-4.247022 1.358084,-0.2396 2.890515,-0.624838 4.583529,-1.512767 1.500315,-0.253693 2.9731,-0.582555 4.262361,-1.592633 2.206884,-0.681215 5.134101,0.756383 9.368933,7.032954 0.178936,0.267789 0.724923,0.465108 0.435872,-0.300673 -0.72951,-1.930891 -3.129094,-4.383265 -4.225655,-6.206101 -1.128678,-1.869818 -0.656101,-2.875197 -1.835247,-4.284605 -0.977268,-1.17451 -2.179354,-1.212093 -3.546613,-0.817458 -1.078208,0.31007 -1.798541,-0.333562 -2.431702,-1.470487 -1.344318,-2.410089 -3.757667,-3.471844 -6.304072,-3.453052 z m 10.800426,6.469191 c 0.279876,0 0.509281,0.230203 0.509281,0.516785 0,0.28658 -0.229405,0.52148 -0.509281,0.52148 -0.279874,0 -0.504693,-0.2349 -0.504693,-0.52148 0,-0.286582 0.224819,-0.516785 0.504693,-0.516785 z"
       style="stroke-width:0.0464277" /><path
       style="fill:#ff6117;fill-opacity:1;stroke:#cc0000;stroke-width:1.143;stroke-linecap:butt;stroke-linejoin:miter;stroke-dasharray:none;stroke-opacity:1"
       d="M 42.062809,33.205026 63.57535,48.97228"
       id="path1226"
       sodipodi:nodetypes="cc" /><path
       sodipodi:type="star"
       style="fill:#ef2929;fill-opacity:1;stroke:#ef2929;stroke-width:0;stroke-dasharray:none;stroke-opacity:1"
       id="path1228"
       inkscape:flatsided="false"
       sodipodi:sides="6"
       sodipodi:cx="112.62345"
       sodipodi:cy="81.018875"
       sodipodi:r1="2.5818844"
       sodipodi:r2="0.70603812"
       sodipodi:arg1="-1.6506263"
       sodipodi:arg2="-1.1270275"
       inkscape:rounded="0"
       inkscape:randomized="0"
       d="m 112.41756,78.445213 0.50903,1.936011 1.82277,-0.827488 -1.42212,1.408836 1.62801,1.164826 -1.93114,-0.527175 -0.19477,1.992314 -0.50902,-1.936011 -1.82278,0.827489 1.42212,-1.408837 -1.62801,-1.164825 1.93115,0.527174 z"
       inkscape:transform-center-x="0.40040028"
       inkscape:transform-center-y="0.0074210018"
       transform="matrix(1.6052882,-0.39277382,0.39277382,1.6052882,-149.23877,-36.931188)" /><ellipse
       style="fill:none;fill-opacity:1;stroke:#f57900;stroke-width:0.575214;stroke-dasharray:none;stroke-opacity:1"
       id="path1627"
       cx="42.069374"
       cy="33.214741"
       rx="0.25525072"
       ry="0.29900798" /></g><style
     id="style603">.st0{fill:#c6c6c6}</style></svg>
